# xmcd CD database file
#
# Track frame offsets:
#	150
#	23442
#	56130
#	73650
#	101085
#	138525
#	169545
#	198795
#	233525
#
# Disc length: 3777 seconds
#
# Revision: 0
# Processed by: cddbd v1.5.2PL0 Copyright (c) Steve Scherf et al.
# Submitted via: CDex 1.70beta2
#
DISCID=700ebf09
DTITLE=Moreghi, Claudio - Sky gates
DYEAR=1990
DGENRE=Jazz
TTITLE0=blues for leo
TTITLE1=soul eyes
TTITLE2=children turnaround
TTITLE3=one year, a theme for you (to my wife patrizia)
TTITLE4=baia sardinia
TTITLE5=sky gates (to my daughter benedetta)
TTITLE6=small change
TTITLE7=polhadots and moonbeams
TTITLE8=don camillo (to brescello town)
EXTD=YEAR: 1990
EXTT0=
EXTT1=
EXTT2=
EXTT3=
EXTT4=
EXTT5=
EXTT6=
EXTT7=
EXTT8=
PLAYORDER=
